<mxfile host="app.diagrams.net" agent="Mozilla/5.0 (X11; Linux x86_64; rv:131.0) Gecko/20100101 Firefox/131.0" version="24.8.0">
  <diagram name="Page-1" id="NrVOWqTqC9JflpnS6QLW">
    <mxGraphModel dx="792" dy="464" grid="1" gridSize="10" guides="1" tooltips="1" connect="1" arrows="1" fold="1" page="1" pageScale="1" pageWidth="1100" pageHeight="850" math="0" shadow="0">
      <root>
        <mxCell id="0" />
        <mxCell id="1" parent="0" />
        <mxCell id="qGWCjoWgSx9h2fH8xWv7-16" style="edgeStyle=orthogonalEdgeStyle;rounded=0;orthogonalLoop=1;jettySize=auto;html=1;entryX=0.5;entryY=1;entryDx=0;entryDy=0;strokeColor=default;curved=0;startArrow=none;startFill=0;endArrow=none;endFill=0;" edge="1" parent="1" source="RIgYpcFcjzrUZQ1iKc-5-1" target="RIgYpcFcjzrUZQ1iKc-5-26">
          <mxGeometry relative="1" as="geometry">
            <Array as="points">
              <mxPoint x="100" y="330" />
              <mxPoint x="200" y="330" />
            </Array>
          </mxGeometry>
        </mxCell>
        <mxCell id="qGWCjoWgSx9h2fH8xWv7-22" value="Child" style="edgeLabel;html=1;align=center;verticalAlign=middle;resizable=0;points=[];" vertex="1" connectable="0" parent="qGWCjoWgSx9h2fH8xWv7-16">
          <mxGeometry x="-0.8887" relative="1" as="geometry">
            <mxPoint as="offset" />
          </mxGeometry>
        </mxCell>
        <mxCell id="RIgYpcFcjzrUZQ1iKc-5-1" value="Alumno" style="swimlane;fontStyle=1;align=center;verticalAlign=top;childLayout=stackLayout;horizontal=1;startSize=26;horizontalStack=0;resizeParent=1;resizeParentMax=0;resizeLast=0;collapsible=1;marginBottom=0;whiteSpace=wrap;html=1;strokeColor=default;fillColor=none;" parent="1" vertex="1">
          <mxGeometry x="20" y="360" width="160" height="170" as="geometry">
            <mxRectangle x="120" y="60" width="80" height="30" as="alternateBounds" />
          </mxGeometry>
        </mxCell>
        <mxCell id="RIgYpcFcjzrUZQ1iKc-5-2" value="&lt;div&gt;- SemestreEnCurso: Int&lt;br&gt;&lt;/div&gt;&lt;div&gt;- Matricula: String&lt;br&gt;&lt;/div&gt;&lt;div&gt;- Correo: String&lt;br&gt;&lt;/div&gt;&lt;div&gt;- CrÃ©ditos: Int&lt;br&gt;&lt;/div&gt;" style="text;strokeColor=none;fillColor=none;align=left;verticalAlign=top;spacingLeft=4;spacingRight=4;overflow=hidden;rotatable=0;points=[[0,0.5],[1,0.5]];portConstraint=eastwest;whiteSpace=wrap;html=1;" parent="RIgYpcFcjzrUZQ1iKc-5-1" vertex="1">
          <mxGeometry y="26" width="160" height="84" as="geometry" />
        </mxCell>
        <mxCell id="RIgYpcFcjzrUZQ1iKc-5-3" value="" style="line;strokeWidth=1;fillColor=none;align=left;verticalAlign=middle;spacingTop=-1;spacingLeft=3;spacingRight=3;rotatable=0;labelPosition=right;points=[];portConstraint=eastwest;strokeColor=inherit;" parent="RIgYpcFcjzrUZQ1iKc-5-1" vertex="1">
          <mxGeometry y="110" width="160" height="8" as="geometry" />
        </mxCell>
        <mxCell id="RIgYpcFcjzrUZQ1iKc-5-4" value="&lt;div&gt;+ obtenerCalificaciones()&lt;/div&gt;&lt;div&gt;+ obtenerHorario()&lt;/div&gt;&lt;div&gt;+ obtenerAsignaturas()&lt;br&gt;&lt;div align=&quot;left&quot;&gt;&lt;br&gt;&lt;/div&gt;&lt;/div&gt;" style="text;strokeColor=none;fillColor=none;align=left;verticalAlign=top;spacingLeft=4;spacingRight=4;overflow=hidden;rotatable=0;points=[[0,0.5],[1,0.5]];portConstraint=eastwest;whiteSpace=wrap;html=1;" parent="RIgYpcFcjzrUZQ1iKc-5-1" vertex="1">
          <mxGeometry y="118" width="160" height="52" as="geometry" />
        </mxCell>
        <mxCell id="qGWCjoWgSx9h2fH8xWv7-53" style="edgeStyle=orthogonalEdgeStyle;rounded=0;orthogonalLoop=1;jettySize=auto;html=1;" edge="1" parent="1" source="RIgYpcFcjzrUZQ1iKc-5-22" target="qGWCjoWgSx9h2fH8xWv7-43">
          <mxGeometry relative="1" as="geometry">
            <Array as="points">
              <mxPoint x="562" y="405" />
              <mxPoint x="680" y="405" />
            </Array>
          </mxGeometry>
        </mxCell>
        <mxCell id="RIgYpcFcjzrUZQ1iKc-5-22" value="chatbot" style="swimlane;fontStyle=1;align=center;verticalAlign=top;childLayout=stackLayout;horizontal=1;startSize=26;horizontalStack=0;resizeParent=1;resizeParentMax=0;resizeLast=0;collapsible=1;marginBottom=0;whiteSpace=wrap;html=1;" parent="1" vertex="1">
          <mxGeometry x="482" y="200" width="160" height="190" as="geometry" />
        </mxCell>
        <mxCell id="RIgYpcFcjzrUZQ1iKc-5-23" value="&lt;div&gt;- status: Int&lt;br&gt;&lt;/div&gt;&lt;div&gt;- lenguajes: String[]&lt;/div&gt;&lt;div&gt;- conexionesActivas: Int[]&lt;/div&gt;" style="text;strokeColor=none;fillColor=none;align=left;verticalAlign=top;spacingLeft=4;spacingRight=4;overflow=hidden;rotatable=0;points=[[0,0.5],[1,0.5]];portConstraint=eastwest;whiteSpace=wrap;html=1;" parent="RIgYpcFcjzrUZQ1iKc-5-22" vertex="1">
          <mxGeometry y="26" width="160" height="54" as="geometry" />
        </mxCell>
        <mxCell id="RIgYpcFcjzrUZQ1iKc-5-24" value="" style="line;strokeWidth=1;fillColor=none;align=left;verticalAlign=middle;spacingTop=-1;spacingLeft=3;spacingRight=3;rotatable=0;labelPosition=right;points=[];portConstraint=eastwest;strokeColor=inherit;" parent="RIgYpcFcjzrUZQ1iKc-5-22" vertex="1">
          <mxGeometry y="80" width="160" height="8" as="geometry" />
        </mxCell>
        <mxCell id="RIgYpcFcjzrUZQ1iKc-5-25" value="&lt;div&gt;+ procesarLenguaje()&lt;/div&gt;&lt;div&gt;+ obtenerContexto()&lt;/div&gt;&lt;div&gt;+ consultarSICEI()&lt;br&gt;&lt;/div&gt;&lt;div&gt;+ enviarRespuesta()&lt;/div&gt;&lt;div&gt;+ ponerEnCola()&lt;/div&gt;" style="text;strokeColor=none;fillColor=none;align=left;verticalAlign=top;spacingLeft=4;spacingRight=4;overflow=hidden;rotatable=0;points=[[0,0.5],[1,0.5]];portConstraint=eastwest;whiteSpace=wrap;html=1;" parent="RIgYpcFcjzrUZQ1iKc-5-22" vertex="1">
          <mxGeometry y="88" width="160" height="102" as="geometry" />
        </mxCell>
        <mxCell id="RIgYpcFcjzrUZQ1iKc-5-26" value="Miembro" style="swimlane;fontStyle=1;align=center;verticalAlign=top;childLayout=stackLayout;horizontal=1;startSize=26;horizontalStack=0;resizeParent=1;resizeParentMax=0;resizeLast=0;collapsible=1;marginBottom=0;whiteSpace=wrap;html=1;" parent="1" vertex="1">
          <mxGeometry x="120" y="180" width="160" height="118" as="geometry" />
        </mxCell>
        <mxCell id="RIgYpcFcjzrUZQ1iKc-5-27" value="&lt;div&gt;- Nombre: String&lt;br&gt;&lt;/div&gt;&lt;div&gt;- Facultad: String&lt;/div&gt;&lt;div&gt;- FechaDeInicio: Int&lt;/div&gt;&lt;div&gt;- Conversaciones: Int[]&lt;br&gt;&lt;/div&gt;&lt;div&gt;- Token: String&lt;br&gt;&lt;/div&gt;" style="text;strokeColor=none;fillColor=none;align=left;verticalAlign=top;spacingLeft=4;spacingRight=4;overflow=hidden;rotatable=0;points=[[0,0.5],[1,0.5]];portConstraint=eastwest;whiteSpace=wrap;html=1;" parent="RIgYpcFcjzrUZQ1iKc-5-26" vertex="1">
          <mxGeometry y="26" width="160" height="84" as="geometry" />
        </mxCell>
        <mxCell id="RIgYpcFcjzrUZQ1iKc-5-28" value="" style="line;strokeWidth=1;fillColor=none;align=left;verticalAlign=middle;spacingTop=-1;spacingLeft=3;spacingRight=3;rotatable=0;labelPosition=right;points=[];portConstraint=eastwest;strokeColor=inherit;" parent="RIgYpcFcjzrUZQ1iKc-5-26" vertex="1">
          <mxGeometry y="110" width="160" height="8" as="geometry" />
        </mxCell>
        <mxCell id="qGWCjoWgSx9h2fH8xWv7-30" style="edgeStyle=orthogonalEdgeStyle;rounded=0;orthogonalLoop=1;jettySize=auto;html=1;entryX=0;entryY=0.5;entryDx=0;entryDy=0;startArrow=classic;startFill=1;dashed=1;fillColor=#ffe6cc;strokeColor=#d79b00;" edge="1" parent="1" source="RIgYpcFcjzrUZQ1iKc-5-30" target="qGWCjoWgSx9h2fH8xWv7-27">
          <mxGeometry relative="1" as="geometry">
            <Array as="points">
              <mxPoint x="480" y="80" />
            </Array>
          </mxGeometry>
        </mxCell>
        <mxCell id="qGWCjoWgSx9h2fH8xWv7-31" value="preguntar()" style="edgeLabel;html=1;align=center;verticalAlign=middle;resizable=0;points=[];" vertex="1" connectable="0" parent="qGWCjoWgSx9h2fH8xWv7-30">
          <mxGeometry x="-0.0976" y="-2" relative="1" as="geometry">
            <mxPoint x="3" y="-2" as="offset" />
          </mxGeometry>
        </mxCell>
        <mxCell id="RIgYpcFcjzrUZQ1iKc-5-30" value="Usuario" style="swimlane;fontStyle=1;align=center;verticalAlign=top;childLayout=stackLayout;horizontal=1;startSize=26;horizontalStack=0;resizeParent=1;resizeParentMax=0;resizeLast=0;collapsible=1;marginBottom=0;whiteSpace=wrap;html=1;" parent="1" vertex="1">
          <mxGeometry x="240" y="30" width="160" height="100" as="geometry" />
        </mxCell>
        <mxCell id="RIgYpcFcjzrUZQ1iKc-5-31" value="- IDSesion: Int" style="text;strokeColor=none;fillColor=none;align=left;verticalAlign=top;spacingLeft=4;spacingRight=4;overflow=hidden;rotatable=0;points=[[0,0.5],[1,0.5]];portConstraint=eastwest;whiteSpace=wrap;html=1;" parent="RIgYpcFcjzrUZQ1iKc-5-30" vertex="1">
          <mxGeometry y="26" width="160" height="26" as="geometry" />
        </mxCell>
        <mxCell id="RIgYpcFcjzrUZQ1iKc-5-32" value="" style="line;strokeWidth=1;fillColor=none;align=left;verticalAlign=middle;spacingTop=-1;spacingLeft=3;spacingRight=3;rotatable=0;labelPosition=right;points=[];portConstraint=eastwest;strokeColor=inherit;" parent="RIgYpcFcjzrUZQ1iKc-5-30" vertex="1">
          <mxGeometry y="52" width="160" height="8" as="geometry" />
        </mxCell>
        <mxCell id="RIgYpcFcjzrUZQ1iKc-5-66" value="" style="endArrow=none;html=1;edgeStyle=orthogonalEdgeStyle;rounded=0;entryX=0.5;entryY=0;entryDx=0;entryDy=0;" parent="RIgYpcFcjzrUZQ1iKc-5-30" target="RIgYpcFcjzrUZQ1iKc-5-26" edge="1">
          <mxGeometry relative="1" as="geometry">
            <mxPoint y="60" as="sourcePoint" />
            <mxPoint x="160" y="60" as="targetPoint" />
            <Array as="points">
              <mxPoint x="-40" y="60" />
            </Array>
          </mxGeometry>
        </mxCell>
        <mxCell id="RIgYpcFcjzrUZQ1iKc-5-67" value="parent" style="edgeLabel;resizable=0;html=1;align=left;verticalAlign=bottom;" parent="RIgYpcFcjzrUZQ1iKc-5-66" connectable="0" vertex="1">
          <mxGeometry x="-1" relative="1" as="geometry">
            <mxPoint x="-40" y="10" as="offset" />
          </mxGeometry>
        </mxCell>
        <mxCell id="RIgYpcFcjzrUZQ1iKc-5-68" value="child" style="edgeLabel;resizable=0;html=1;align=right;verticalAlign=bottom;" parent="RIgYpcFcjzrUZQ1iKc-5-66" connectable="0" vertex="1">
          <mxGeometry x="1" relative="1" as="geometry">
            <mxPoint x="10" as="offset" />
          </mxGeometry>
        </mxCell>
        <mxCell id="RIgYpcFcjzrUZQ1iKc-5-33" value="&lt;div&gt;+ preguntar()&lt;/div&gt;&lt;div&gt;+ iniciarSesion()&lt;br&gt;&lt;/div&gt;" style="text;strokeColor=none;fillColor=none;align=left;verticalAlign=top;spacingLeft=4;spacingRight=4;overflow=hidden;rotatable=0;points=[[0,0.5],[1,0.5]];portConstraint=eastwest;whiteSpace=wrap;html=1;" parent="RIgYpcFcjzrUZQ1iKc-5-30" vertex="1">
          <mxGeometry y="60" width="160" height="40" as="geometry" />
        </mxCell>
        <mxCell id="RIgYpcFcjzrUZQ1iKc-5-49" value="Administrativo" style="swimlane;fontStyle=1;align=center;verticalAlign=top;childLayout=stackLayout;horizontal=1;startSize=26;horizontalStack=0;resizeParent=1;resizeParentMax=0;resizeLast=0;collapsible=1;marginBottom=0;whiteSpace=wrap;html=1;" parent="1" vertex="1">
          <mxGeometry x="120" y="560" width="160" height="88" as="geometry" />
        </mxCell>
        <mxCell id="RIgYpcFcjzrUZQ1iKc-5-50" value="&lt;div&gt;- Departamento: String&lt;br&gt;&lt;/div&gt;&lt;div&gt;- Puesto: String&lt;/div&gt;&lt;div&gt;- NumContrato: Int&lt;br&gt;&lt;/div&gt;" style="text;strokeColor=none;fillColor=none;align=left;verticalAlign=top;spacingLeft=4;spacingRight=4;overflow=hidden;rotatable=0;points=[[0,0.5],[1,0.5]];portConstraint=eastwest;whiteSpace=wrap;html=1;" parent="RIgYpcFcjzrUZQ1iKc-5-49" vertex="1">
          <mxGeometry y="26" width="160" height="54" as="geometry" />
        </mxCell>
        <mxCell id="RIgYpcFcjzrUZQ1iKc-5-51" value="" style="line;strokeWidth=1;fillColor=none;align=left;verticalAlign=middle;spacingTop=-1;spacingLeft=3;spacingRight=3;rotatable=0;labelPosition=right;points=[];portConstraint=eastwest;strokeColor=inherit;" parent="RIgYpcFcjzrUZQ1iKc-5-49" vertex="1">
          <mxGeometry y="80" width="160" height="8" as="geometry" />
        </mxCell>
        <mxCell id="qGWCjoWgSx9h2fH8xWv7-17" style="edgeStyle=orthogonalEdgeStyle;rounded=0;orthogonalLoop=1;jettySize=auto;html=1;entryX=0.5;entryY=1;entryDx=0;entryDy=0;endArrow=none;endFill=0;" edge="1" parent="1" source="RIgYpcFcjzrUZQ1iKc-5-55" target="RIgYpcFcjzrUZQ1iKc-5-26">
          <mxGeometry relative="1" as="geometry">
            <Array as="points">
              <mxPoint x="305" y="330" />
              <mxPoint x="200" y="330" />
            </Array>
          </mxGeometry>
        </mxCell>
        <mxCell id="qGWCjoWgSx9h2fH8xWv7-21" value="Child" style="edgeLabel;html=1;align=center;verticalAlign=middle;resizable=0;points=[];" vertex="1" connectable="0" parent="qGWCjoWgSx9h2fH8xWv7-17">
          <mxGeometry x="-0.9027" relative="1" as="geometry">
            <mxPoint as="offset" />
          </mxGeometry>
        </mxCell>
        <mxCell id="RIgYpcFcjzrUZQ1iKc-5-55" value="Docente" style="swimlane;fontStyle=1;align=center;verticalAlign=top;childLayout=stackLayout;horizontal=1;startSize=26;horizontalStack=0;resizeParent=1;resizeParentMax=0;resizeLast=0;collapsible=1;marginBottom=0;whiteSpace=wrap;html=1;" parent="1" vertex="1">
          <mxGeometry x="230" y="368" width="150" height="88" as="geometry" />
        </mxCell>
        <mxCell id="RIgYpcFcjzrUZQ1iKc-5-56" value="&lt;div&gt;- Materias: String[]&lt;br&gt;&lt;/div&gt;&lt;div&gt;- EspecializaciÃ³n: String&lt;/div&gt;&lt;div&gt;- NumContrato: Int&lt;br&gt;&lt;/div&gt;" style="text;strokeColor=none;fillColor=none;align=left;verticalAlign=top;spacingLeft=4;spacingRight=4;overflow=hidden;rotatable=0;points=[[0,0.5],[1,0.5]];portConstraint=eastwest;whiteSpace=wrap;html=1;" parent="RIgYpcFcjzrUZQ1iKc-5-55" vertex="1">
          <mxGeometry y="26" width="150" height="54" as="geometry" />
        </mxCell>
        <mxCell id="RIgYpcFcjzrUZQ1iKc-5-57" value="" style="line;strokeWidth=1;fillColor=none;align=left;verticalAlign=middle;spacingTop=-1;spacingLeft=3;spacingRight=3;rotatable=0;labelPosition=right;points=[];portConstraint=eastwest;strokeColor=inherit;" parent="RIgYpcFcjzrUZQ1iKc-5-55" vertex="1">
          <mxGeometry y="80" width="150" height="8" as="geometry" />
        </mxCell>
        <mxCell id="qGWCjoWgSx9h2fH8xWv7-19" style="edgeStyle=orthogonalEdgeStyle;rounded=0;orthogonalLoop=1;jettySize=auto;html=1;entryX=0.503;entryY=0.992;entryDx=0;entryDy=0;entryPerimeter=0;endArrow=none;endFill=0;" edge="1" parent="1" source="RIgYpcFcjzrUZQ1iKc-5-49">
          <mxGeometry relative="1" as="geometry">
            <mxPoint x="200.48000000000002" y="293.79200000000003" as="targetPoint" />
            <Array as="points" />
          </mxGeometry>
        </mxCell>
        <mxCell id="qGWCjoWgSx9h2fH8xWv7-20" value="Parent" style="edgeLabel;html=1;align=center;verticalAlign=middle;resizable=0;points=[];" vertex="1" connectable="0" parent="qGWCjoWgSx9h2fH8xWv7-19">
          <mxGeometry x="0.8904" y="1" relative="1" as="geometry">
            <mxPoint as="offset" />
          </mxGeometry>
        </mxCell>
        <mxCell id="qGWCjoWgSx9h2fH8xWv7-23" value="Child" style="edgeLabel;html=1;align=center;verticalAlign=middle;resizable=0;points=[];" vertex="1" connectable="0" parent="qGWCjoWgSx9h2fH8xWv7-19">
          <mxGeometry x="-0.933" y="-1" relative="1" as="geometry">
            <mxPoint as="offset" />
          </mxGeometry>
        </mxCell>
        <mxCell id="qGWCjoWgSx9h2fH8xWv7-38" style="edgeStyle=orthogonalEdgeStyle;rounded=0;orthogonalLoop=1;jettySize=auto;html=1;fillColor=#ffe6cc;strokeColor=#d79b00;startArrow=classic;startFill=1;" edge="1" parent="1" source="qGWCjoWgSx9h2fH8xWv7-26" target="RIgYpcFcjzrUZQ1iKc-5-22">
          <mxGeometry relative="1" as="geometry" />
        </mxCell>
        <mxCell id="qGWCjoWgSx9h2fH8xWv7-26" value="ServidorWeb" style="swimlane;fontStyle=1;align=center;verticalAlign=top;childLayout=stackLayout;horizontal=1;startSize=26;horizontalStack=0;resizeParent=1;resizeParentMax=0;resizeLast=0;collapsible=1;marginBottom=0;whiteSpace=wrap;html=1;" vertex="1" parent="1">
          <mxGeometry x="482" y="27" width="160" height="140" as="geometry" />
        </mxCell>
        <mxCell id="qGWCjoWgSx9h2fH8xWv7-27" value="&lt;div&gt;- IP: String&lt;/div&gt;&lt;div&gt;- Port: Int&lt;/div&gt;&lt;div&gt;- Dominio: String&lt;br&gt;&lt;/div&gt;" style="text;strokeColor=none;fillColor=none;align=left;verticalAlign=top;spacingLeft=4;spacingRight=4;overflow=hidden;rotatable=0;points=[[0,0.5],[1,0.5]];portConstraint=eastwest;whiteSpace=wrap;html=1;" vertex="1" parent="qGWCjoWgSx9h2fH8xWv7-26">
          <mxGeometry y="26" width="160" height="54" as="geometry" />
        </mxCell>
        <mxCell id="qGWCjoWgSx9h2fH8xWv7-28" value="" style="line;strokeWidth=1;fillColor=none;align=left;verticalAlign=middle;spacingTop=-1;spacingLeft=3;spacingRight=3;rotatable=0;labelPosition=right;points=[];portConstraint=eastwest;strokeColor=inherit;" vertex="1" parent="qGWCjoWgSx9h2fH8xWv7-26">
          <mxGeometry y="80" width="160" height="8" as="geometry" />
        </mxCell>
        <mxCell id="qGWCjoWgSx9h2fH8xWv7-29" value="&lt;div&gt;+ get()&lt;/div&gt;&lt;div&gt;+ validarToken()&lt;/div&gt;&lt;div&gt;+ post()&lt;/div&gt;" style="text;strokeColor=none;fillColor=none;align=left;verticalAlign=top;spacingLeft=4;spacingRight=4;overflow=hidden;rotatable=0;points=[[0,0.5],[1,0.5]];portConstraint=eastwest;whiteSpace=wrap;html=1;" vertex="1" parent="qGWCjoWgSx9h2fH8xWv7-26">
          <mxGeometry y="88" width="160" height="52" as="geometry" />
        </mxCell>
        <mxCell id="qGWCjoWgSx9h2fH8xWv7-32" style="rounded=0;orthogonalLoop=1;jettySize=auto;html=1;startArrow=classic;startFill=1;fillColor=#dae8fc;strokeColor=#6c8ebf;" edge="1" parent="1" source="RIgYpcFcjzrUZQ1iKc-5-33" target="qGWCjoWgSx9h2fH8xWv7-29">
          <mxGeometry relative="1" as="geometry" />
        </mxCell>
        <mxCell id="qGWCjoWgSx9h2fH8xWv7-33" value="iniciarSesion()" style="edgeLabel;html=1;align=center;verticalAlign=middle;resizable=0;points=[];labelBackgroundColor=none;" vertex="1" connectable="0" parent="qGWCjoWgSx9h2fH8xWv7-32">
          <mxGeometry x="-0.0393" y="-3" relative="1" as="geometry">
            <mxPoint y="2" as="offset" />
          </mxGeometry>
        </mxCell>
        <mxCell id="qGWCjoWgSx9h2fH8xWv7-35" style="rounded=0;orthogonalLoop=1;jettySize=auto;html=1;entryX=0;entryY=0.5;entryDx=0;entryDy=0;fillColor=#dae8fc;strokeColor=#6c8ebf;startArrow=classic;startFill=1;" edge="1" parent="1" source="qGWCjoWgSx9h2fH8xWv7-34" target="qGWCjoWgSx9h2fH8xWv7-29">
          <mxGeometry relative="1" as="geometry" />
        </mxCell>
        <mxCell id="qGWCjoWgSx9h2fH8xWv7-34" value="&lt;div&gt;Inicio de sesiÃ³n de&lt;/div&gt;&lt;div&gt;Microsoft&lt;br&gt;&lt;/div&gt;" style="html=1;whiteSpace=wrap;" vertex="1" parent="1">
          <mxGeometry x="320" y="200" width="110" height="50" as="geometry" />
        </mxCell>
        <mxCell id="qGWCjoWgSx9h2fH8xWv7-37" value="" style="shape=image;imageAspect=0;aspect=fixed;verticalLabelPosition=bottom;verticalAlign=top;image=data:image/jpeg,/9j/4AAQSkZJRgABAQEAYABgAAD//gA7Q1JFQVRPUjogZ2QtanBlZyB2MS4wICh1c2luZyBJSkcgSlBFRyB2ODApLCBxdWFsaXR5ID0gMzAK/9sAQwAbEhQXFBEbFxYXHhwbIChCKyglJShROj0wQmBVZWRfVV1baniZgWpxkHNbXYW1hpCeo6utq2eAvMm6pseZqKuk/9sAQwEcHh4oIyhOKytOpG5dbqSkpKSkpKSkpKSkpKSkpKSkpKSkpKSkpKSkpKSkpKSkpKSkpKSkpKSkpKSkpKSkpKSk/8AAEQgC0ALQAwEiAAIRAQMRAf/EAB8AAAEFAQEBAQEBAAAAAAAAAAABAgMEBQYHCAkKC//EALUQAAIBAwMCBAMFBQQEAAABfQECAwAEEQUSITFBBhNRYQcicRQygZGhCCNCscEVUtHwJDNicoIJChYXGBkaJSYnKCkqNDU2Nzg5OkNERUZHSElKU1RVVldYWVpjZGVmZ2hpanN0dXZ3eHl6g4SFhoeIiYqSk5SVlpeYmZqio6Slpqeoqaqys7S1tre4ubrCw8TFxsfIycrS09TV1tfY2drh4uPk5ebn6Onq8fLz9PX29/j5+v/EAB8BAAMBAQEBAQEBAQEAAAAAAAABAgMEBQYHCAkKC//EALURAAIBAgQEAwQHBQQEAAECdwABAgMRBAUhMQYSQVEHYXETIjKBCBRCkaGxwQkjM1LwFWJy0QoWJDThJfEXGBkaJicoKSo1Njc4OTpDREVGR0hJSlNUVVZXWFlaY2RlZmdoaWpzdHV2d3h5eoKDhIWGh4iJipKTlJWWl5iZmqKjpKWmp6ipqrKztLW2t7i5usLDxMXGx8jJytLT1NXW19jZ2uLj5OXm5+jp6vLz9PX29/j5+v/aAAwDAQACEQMRAD8A6aiiigAooooAKKKKACiiigAooooAKKKKACiiigAooooAKKKKACiiigAooooAKKKKACiiigAooooAKKKKACiiigAooooAKKKKACiiigAooooAKKKKACiiigAooooAKKKKACiiigAooooAKKKKACiiigAooooAKKKKACiiigAooooAKKKKACiiigAooooAKKKKACiiigAooooAKKKKACiiigAooooAKKKKACiiigAooooAKKKKACiiigAooooAKKKKACiiigAooooAKKKKACiiigAooooAKKKKACiiigAooooAKKKKACiiigAooooAKKKKACiiigAooooAKKKKACiiigAooooAKKKKACiiigAooooAKKKKACiiigAooooAKKKKACiiigAooooAKKKKACiiigAooooAKKKKACiiigAooooAKKKKACiiigAooooAKKKKACiiigAooooAKKKKACiiigAooooAKKKKACiiigAooooAKKKKACiiigAooooAKKKKACiiigAooooAKKKKACiiigAooooAKKKKACiiigAooooAKKKKACiiigAooooAKKKKACiiigAooooAKKKKACiiigAooooAKKKKACiiigAooooAKKKKACiiigAooooAKKKKACiiigAooooAKKKKACiiigAooooAKKKKACiiigAooooAKKKKACiiigAooooAKKKKACiiigAooooAKKKKACiiigAooooAKKKKACiiigAooooAKKKKACiiigAooooAKKKKACiiigAooooAKKKKACiiigAooooAKKKKACiiigAooooAKKKKACiiigAooooAKKKKACiiigAooooAKKKKACiiigAooooAKKKKACiiigAooooAKKKKACiiigAooooAKKKKACiiigAooooAKKKKACiiigAooooAKKKKACiiigAooooAKKKKACiiigAooooAKKKKACiiigAooooAKKKKACiiigAooooAKKKKACiiigAooooAKKKKACiiigAooooAKKKKACiiigAooooAKKKKACiiigAooooAKKKKACiiigAooooAKKKKACiiigAooooAKKKKACiiigAooooAKKKKACiiigAooooAKKKKACiiigAooooAKKKKACiiigAooooAKKKKACiiigAooooAKKKKACiiigAooooAKKKKACiiigAooooAKKKKACiiigAooooAKKKKACiiigAooooAKKKKACiiigAooooAKKKKACiiigAooooAKKKKACiiigAooooAKKKKACiiigAooooAKKKKACiiigAooooAKKKKACiiigAooooAKKKKACiiigAooooAKKKKACiiigAooooAKKKKACiiigAooooAKKKKACiiigAooooAKKKKACiiigAooooAKKKKACiiigAooooAKKKKACiiigAooooAKKKKACiiigAooooAKKKKACiiigAooooAKKKKACiisy/vZoLgohGMA8iplJRV2XCDm7I06KxP7TufVfyo/tO59V/Ko9rE1+rzNuisT+07n1X8qP7TufVfyo9rEPq8zborE/tO59V/Kj+07n1X8qPaxD6vM26KxP7TufVfyo/tO59V/Kj2sQ+rzNuisT+07n1X8qP7TufVfyo9rEPq8zborE/tO59V/Kj+07n1X8qPaxD6vM26KxP7TufVfyo/tO59V/Kj2sQ+rzNuisT+07n1X8qP7TufVfyo9rEPq8zborE/tO59V/Kj+07n1X8qPaxD6vM26KxP7TufVfyo/tO59V/Kj2sQ+rzNuisT+07n1X8qP7TufVfyo9rEPq8zborE/tO59V/Kj+07n1X8qPaxD6vM26KxP7TufVfyo/tO59V/Kj2sQ+rzNuisT+07n1X8qP7TufVfyo9rEPq8zborE/tO59V/KtOxmeeAO+M+1VGaloiJ0pQV2WKKKKsyCiqF5dSwy7UIxjuKg/tCf1X8qwlXjF2YrmtRWT/aE/qv5Uf2hP6r+VL6xAOZGtRWT/aE/qv5Uf2hP6r+VH1iAcyNaisn+0J/Vfyo/tCf1X8qPrEA5ka1FZP9oT+q/lR/aE/qv5UfWIBzI1qKyf7Qn9V/Kj+0J/Vfyo+sQDmRrUVk/wBoT+q/lR/aE/qv5UfWIBzI1qKyf7Qn9V/Kj+0J/Vfyo+sQDmRrUVk/2hP6r+VH9oT+q/lR9YgHMjWorJ/tCf1X8qP7Qn9V/Kj6xAOZGtRWT/aE/qv5Uf2hP6r+VH1iAcyNaisn+0J/Vfyo/tCf1X8qPrEA5ka1FZP9oT+q/lR/aE/qv5UfWIBzI1qKyf7Qn9V/Kj+0J/Vfyo+sQDmRrUVk/wBoT+q/lR/aE/qv5UfWYBdGtRVezlaaHe+M5xxVit4vmV0MKKKKYBRRRQAUUUUAFFFFABRRRQAUUUUAFFFFABRRRQAUUUUAFFFFABRRRQAUUUUAFYmq/wDH4f8AdFbdYmq/8fh/3RWVX4Tow/xlOiiiuY7wooooAKKKKACiiigAooooAKKKKACiiigAooooAKKKKACiiigAooooAKKKKACiiigAooooAK29L/49R9axK29L/wCPUfWtaW5z4n4S5RRRXScBlal/r/wqpVvUv9f+FVK8ur8bIe4UUUVmSFFFFABRRRQAUUUUAFFFFABRRRQAUUUUAFFFFABRRRQAUUUUAFFFFABRRRQAUUUUAFFFFAGrpv8Ax7fiat1U03/j2/E1br1KXwI1QUUUVoAUUUUAFFFFABRRRQAUUUUAFFFFABRRRQAUUUUAFFFFABRRRQAUUUUAFFFFABWJqv8Ax+H/AHRW3WJqv/H4f90VlV+E6MP8ZTooormO8KKKKACiiigAooooAKKKKACiiigAooooAKKKKACiiigAooooAKKKKACiiigAooooAKKKKACtvS/+PUfWsStvS/8Aj1H1rWluc+J+EuUUUV0nAZWpf6/8KqVb1L/X/hVSvLq/GzN7hRRRWYgooooAKKKKACiiigAooooAKKKKACiiigAooooAKKKKACiiigAooooAKKKKACiiigAooooA1dN/49vxNW6qab/x7fiat16lL4EaIKKKK0GFFFFABRRRQAUUUUAFFFFABRRRQAUUUUAFFFFABRRRQAUUUUAFFFFABRRRQAViar/x+H/dFbdYmq/8fh/3RWVX4Tow/wAZTooormO8KKKKACiiigAooooAKKKKACiiigAooooAKKKKACiiigAooooAKKKKACiiigAooooAKKKKACtvS/8Aj1H1rErb0v8A49R9a1pbnPifhLlFFFdJwGVqX+v/AAqpVvUv9f8AhVSvLq/GzN7hRRRWYgooooAKKKKACiiigAooooAKKKKACiiigAooooAKKKKACiiigAooooAKKKKACiiigAooooA1dN/49vxNW6qab/x7fiat16lL4EaIKKKK0GFFFFABRRRQAUUUUAFFFFABRRRQAUUUUAFFFFABRRRQAUUUUAFFFFABRRRQAViar/x+H/dFbdYmq/8AH4f90VlV+E6MP8ZTooormO8KKKKACiiigAooooAKKKKACiiigAooooAKKKKACiiigAooooAKKKKACiiigAooooAKKKKACtvS/wDj1H1rErb0v/j1H1rWluc+J+EuUUUV0nAZWpf6/wDCqlW9S/1/4VUry6vxsze4UUUVmIKKKKACiiigAooooAKKKKACiiigAooooAKKKKACiiigAooooAKKKKACiiigAooooAKKKKANXTf+Pb8TVuqmm/8AHt+Jq3XqUvgRogooorQYUUUUAFFFFABRRRQAUUUUAFFFFABRRRQAUUUUAFFFFABRRRQAUUUUAFFFFABWJqv/AB+H/dFbdYmq/wDH4f8AdFZVfhOjD/GU6KKK5jvCiiigAooooAKKKKACiiigAooooAKKKKACiiigAooooAKKKKACiiigAooooAKKKKACiiigArb0v/j1H1rErb0v/j1H1rWluc+J+EuUUUV0nAZWpf6/8KqVb1L/AF/4VUry6vxsze4UUUVmIKKKKACiiigAooooAKKKKACiiigAooooAKKKKACiiigAooooAKKKKACiiigAooooAKKKKANXTf8Aj2/E1bqppv8Ax7fiat16lL4EaIKKKK0GFFFFABRRRQAUUUUAFFFFABRRRQAUUUUAFFFFABRRRQAUUUUAFFFFABRRRQAViar/AMfh/wB0Vt1iar/x+H/dFZVfhOjD/GU6KKK5jvCiiigAooooAKKKKACiiigAooooAKKKKACiiigAooooAKKKKACiiigAooooAKKKKACiiigArb0v/j1H1rErb0v/AI9R9a1pbnPifhLlFFFdJwGVqX+v/CqlW9S/1/4VUry6vxsze4UUUVmIKKKKACiiigAooooAKKKKACiiigAooooAKKKKACiiigAooooAKKKKACiiigAooooAKKKKANXTf+Pb8TVuqmm/8e34mrdepS+BGiCiiitBhRRRQAUUUUAFFFFABRRRQAUUUUAFFFFABRRRQAUUUUAFFFFABRRRQAUUUUAFYmq/8fh/3RW3WJqv/H4f90VlV+E6MP8AGU6KKK5jvCiiigAooooAKKKKACiiigAooooAKKKKACiiigAooooAKKKKACiiigAooooAKKKKACiiigArb0v/AI9R9axK29L/AOPUfWtaW5z4n4S5RRRXScBlal/r/wAKqVb1L/X/AIVUry6vxsze4UUUVmIKKKKACiiigAooooAKKKKACiiigAooooAKKKKACiiigAooooAKKKKACiiigAooooAKKKKANXTf+Pb8TVuqmm/8e34mrdepS+BGiCiiitBhRRRQAUUUUAFFFFABRRRQAUUUUAFFFFABRRRQAUUUUAFFFFABRRRQAUUUUAFYmq/8fh/3RW3WJqv/AB+H/dFZVfhOjD/GU6KKK5jvCiiigAooooAKKKKACiiigAooooAKKKKACiiigAooooAKKKKACiiigAooooAKKKKACiiigArb0v8A49R9axK29L/49R9a1pbnPifhLlFFFdJwGVqX+v8AwqpVvUv9f+FVK8ur8bM3uFFFFZiCiiigAooooAKKKKACiiigAooooAKKKKACiiigAooooAKKKKACiiigAooooAKKKKACiiigDV03/j2/E1bqppv/AB7fiat16lL4EaIKKKK0GFFFFABRRRQAUUUUAFFFFABRRRQAUUUUAFFFFABRRRQAUUUUAFFFFABRRRQAViar/wAfh/3RW3WJqv8Ax+H/AHRWVX4Tow/xlOiiiuY7wooooAKKKKACiiigAooooAKKKKACiiigAooooAKKKKACiiigAooooAKKKKACiiigAooooAK29L/49R9axK29L/49R9a1pbnPifhLlFFFdJwGVqX+v/CqlW9S/wBf+FVK8ur8bM3uFFFFZiCiiigAooooAKKKKACiiigAooooAKKKKACiiigAooooAKKKKACiiigAooooAKKKKACiiigDV03/AI9vxNW6qab/AMe34mrdepS+BGiCiiitBhRRRQAUUUUAFFFFABRRRQAUUUUAFFFFABRRRQAUUUUAFFFFABRRRQAUUUUAFYmq/wDH4f8AdFbdYmq/8fh/3RWVX4Tow/xlOiiiuY7wooooAKKKKACiiigAooooAKKKKACiiigAooooAKKKKACiiigAooooAKKKKACiiigAooooAK29L/49R9axK29L/wCPUfWtaW5z4n4S5RRRXScBlal/r/wqpVvUv9f+FVK8ur8bM3uFFFFZiCiiigAooooAKKKKACiiigAooooAKKKKACiiigAooooAKKKKACiiigAooooAKKKKACiiigDV03/j2/E1bqppv/Ht+Jq3XqUvgRogooorQYUUUUAFFFFABRRRQAUUUUAFFFFABRRRQAUUUUAFFFFABRRRQAUUUUAFFFFABWJqv/H4f90Vt1iar/x+H/dFZVfhOjD/ABlOiiiuY7wooooAKKKKACiiigAooooAKKKKACiiigAooooAKKKKACiiigAooooAKKKKACiiigAooooAK29L/wCPUfWsStvS/wDj1H1rWluc+J+EuUUUV0nAZWpf6/8ACqlW9S/1/wCFVK8ur8bM3uFFFFZiCiiigAooooAKKKKACiiigAooooAKKKKACiiigAooooAKKKKACiiigAooooAKKKKACiiigDV03/j2/E1bqppv/Ht+Jq3XqUvgRogooorQYUUUUAFFFFABRRRQAUUUUAFFFFABRRRQAUUUUAFFFFABRRRQAUUUUAFFFFABWJqv/H4f90Vt1iar/wAfh/3RWVX4Tow/xlOiiiuY7wooooAKKKKACiiigAooooAKKKKACiiigAooooAKKKKACiiigAooooAKKKKACiiigAooooAK29L/AOPUfWsStvS/+PUfWtaW5z4n4S5RRRXScBlal/r/AMKqVb1L/X/hVSvLq/GzN7hRRRWYgooooAKKKKACiiigAooooAKKKKACiiigAooooAKKKKACiiigAooooAKKKKACiiigAooooA1dN/49vxNW6qab/wAe34mrdepS+BGiCiiitBhRRRQAUUUUAFFFFABRRRQAUUUUAFFFFABRRRQAUUUUAFFFFABRRRQAUUUUAFYmq/8AH4f90Vt1iar/AMfh/wB0VlV+E6MP8ZTooormO8KKKKACiiigAooooAKKKKACiiigAooooAKKKKACiiigAooooAKKKKACiiigAooooAKKKKACtvS/+PUfWsStvS/+PUfWtaW5z4n4S5RRRXScBlal/r/wqpVvUv8AX/hVSvLq/GzN7hRRRWYgooooAKKKKACiiigAooooAKKKKACiiigAooooAKKKKACiiigAooooAKKKKACiiigAooooA1dN/wCPb8TVuqmm/wDHt+Jq3XqUvgRogooorQYUUUUAFFFFABRRRQAUUUUAFFFFABRRRQAUUUUAFFFFABRRRQAUUUUAFFFFABWJqv8Ax+H/AHRW3WJqv/H4f90VlV+E6MP8ZTooormO8KKKKACiiigAooooAKKKKACiiigAooooAKKKKACiiigAooooAKKKKACiiigAooooAKKKKACtvS/+PUfWsStvS/8Aj1H1rWluc+J+EuUUUV0nAZWpf6/8KqVb1L/X/hVSvLq/GzN7hRRRWYgooooAKKKKACiiigAooooAKKKKACiiigAooooAKKKKACiiigAooooAKKKKACiiigAooooA1dN/49vxNW6qab/x7fiat16lL4EaIKKKK0GFFFFABRRRQAUUUUAFFFFABRRRQAUUUUAFFFFABRRRQAUUUUAFFFFABRRRQAViar/x+H/dFbdVprOKeTe4OelROPMrI1pTUJXZg0Vt/wBm2/oaP7Nt/Q1j7JnV9ZiYlFbf9m2/oaP7Nt/Q0eyYfWYmJRW3/Ztv6Gj+zbf0NHsmH1mJiUVt/wBm2/oaP7Nt/Q0eyYfWYmJRW3/Ztv6Gj+zbf0NHsmH1mJiUVt/2bb+ho/s239DR7Jh9ZiYlFbf9m2/oaP7Nt/Q0eyYfWYmJRW3/AGbb+ho/s239DR7Jh9ZiYlFbf9m2/oaP7Nt/Q0eyYfWYmJRW3/Ztv6Gj+zbf0NHsmH1mJiUVt/2bb+ho/s239DR7Jh9ZiYlFbf8AZtv6Gj+zbf0NHsmH1mJiUVt/2bb+ho/s239DR7Jh9ZiYlFbf9m2/oaP7Nt/Q0eyYfWYmJW3pf/HqPrR/Ztv6GrEMSwpsQcVcIOLuY1qymrIkooorY5jK1L/X/hVStmW1jmbc4OaZ9gh9DXFOhKUmyWjJorW+wQ+ho+wQ+hqfq8hcpk0VrfYIfQ0fYIfQ0fV5BymTRWt9gh9DR9gh9DR9XkHKZNFa32CH0NH2CH0NH1eQcpk0VrfYIfQ0fYIfQ0fV5BymTRWt9gh9DR9gh9DR9XkHKZNFa32CH0NH2CH0NH1eQcpk0VrfYIfQ0fYIfQ0fV5BymTRWt9gh9DR9gh9DR9XkHKZNFa32CH0NH2CH0NH1eQcpk0VrfYIfQ0fYIfQ0fV5BymTRWt9gh9DR9gh9DR9XkHKZNFa32CH0NH2CH0NH1eQcpk0VrfYIfQ0fYIfQ0fV5Byiab/x7fiat0yKJYU2p0p9dsFaKRYUUUVQBRRRQAUUUUAFFFFABRRRQAUUUUAFFFFABRRRQAUUUUAFFFFABRRRQAUUUUAFFFFABRRRQAUUUUAFFFFABRRRQAUUUUAFFFFABRRRQAUUUUAFFFFABRRRQAUUUUAFFFFABRRRQAUUUUAFFFFABRRRQAUUUUAFFFFABRRRQAUUUUAFFFFABRRRQAUUUUAFFFFABRRRQAUUUUAFFFFABRRRQAUUUUAFFFFABRRRQAUUUUAFFFFABRRRQAUUUUAFFFFABRRRQAUUUUAFFFFABRRRQAUUUUAFFFFABRRRQAUUUUAFZt9eywXBRMYwDWlWJqv8Ax+H/AHRWtJJyszCvJxhdC/2nP7Uf2nP7VSorq9nHscPtp9y7/ac/tR/ac/tVKij2cewe2n3Lv9pz+1H9pz+1UqKPZx7B7afcu/2nP7Uf2nP7VSoo9nHsHtp9y7/ac/tR/ac/tVKij2cewe2n3Lv9pz+1H9pz+1UqKPZx7B7afcu/2nP7Uf2nP7VSoo9nHsHtp9y7/ac/tR/ac/tVKij2cewe2n3Lv9pz+1H9pz+1UqKPZx7B7afcu/2nP7Uf2nP7VSoo9nHsHtp9y7/ac/tR/ac/tVKij2cewe2n3Lv9pz+1H9pz+1UqKPZx7B7afcu/2nP7Uf2nP7VSoo9nHsHtp9y7/ac/tR/ac/tVKij2cewe2n3Lv9pz+1aVlM08AdutYFbel/8AHoPrWNaCUdDow85Slqy5RRRXMdpWuJ2jfAqL7VJ7UXf+t/CoK8urVmptJnTCCaJ/tUntR9qk9qgorL21TuVyR7E/2qT2o+1Se1QUUe2qdw5I9if7VJ7UfapPaoKKPbVO4ckexP8AapPaj7VJ7VBRR7ap3Dkj2J/tUntR9qk9qgoo9tU7hyR7E/2qT2o+1Se1QUUe2qdw5I9if7VJ7UfapPaoKKPbVO4ckexP9qk9qPtUntUFFHtqncOSPYn+1Se1H2qT2qCij21TuHJHsT/apPaj7VJ7VBRR7ap3Dkj2J/tUntR9qk9qgoo9tU7hyR7E/wBqk9qPtUntUFFHtqncOSPYn+1Se1H2qT2qCij21TuHJHsT/apPaj7VJ7VBRR7ap3Dkj2NC3cyR7j1zUtQWf+p/Gp69Wk24Js5paMKKKK0JCiiigAooooAKKKKACiiigAooooAKKKKACiiigAooooAKKKKACiiigAooooAKxNV/4/D/ALorbrE1X/j8P+6K2o/Ec+J+Ap0UUV2HnBRRRQAUUUUAFFFFABRRRQAUUUUAFFFFABRRRQAUUUUAFFFFABRRRQAUUUUAFFFFABRRRQAVt6X/AMeg+tYlbel/8eg+tY1/hOnDfEXKKKK4z0Cjd/638Kgqe7/1v4VBXjVv4jOuHwoKKKKyLCiiigAooooAKKKKACiiigAooooAKKKKACiiigAooooAKKKKACiiigAooooAKKKKACiiigC9Z/6n8anqCz/1P41PXs0f4aOOfxMKKKK1JCiiigAooooAKKKKACiiigAooooAKKKKACiiigAooooAKKKKACiiigAooooAKxNV/wCPw/7orbrE1X/j8P8AuitqPxHPifgKdFFFdh5wUUUUAFFFFABRRRQAUUUUAFFFFABRRRQAUUUUAFFFFABRRRQAUUUUAFFFFABRRRQAUUUUAFbel/8AHoPrWJW3pf8Ax6D61jX+E6cN8RcooorjPQKN3/rfwqCp7v8A1v4VBXjVv4jOuHwoKKKKyLCiiigAooooAKKKKACiiigAooooAKKKKACiiigAooooAKKKKACiiigAooooAKKKKACiiigC9Z/6n8anqCz/ANT+NT17NH+Gjjn8TCiiitSQooooAKKKKACiiigAooooAKKKKACiiigAooooAKKKKACiiigAooooAKKKKACsTVf+Pw/7orbrE1X/AI/D/uitqPxHPifgKdFFFdh5wUUUUAFFFFABRRRQAUUUUAFFFFABRRRQAUUUUAFFFFABRRRQAUUUUAFFFFABRRRQAUUUUAFbel/8eg+tYlbel/8AHoPrWNf4Tpw3xFyiiiuM9Ao3f+t/CoKnu/8AW/hUFeNW/iM64fCgooorIsKKKKACiiigAooooAKKKKACiiigAooooAKKKKACiiigAooooAKKKKACiiigAooooAKKKKAL1n/qfxqeoLP/AFP41PXs0f4aOOfxMKKKK1JCiiigAooooAKKKKACiiigAooooAKKKKACiiigAooooAKKKKACiiigAooooAKxNV/4/D/uitusTVf+Pw/7oraj8Rz4n4CnRRRXYecFFFFABRRRQAUUUUAFFFFABRRRQAUUUUAFFFFABRRRQAUUUUAFFFFABRRRQAUUUUAFFFFABW3pf/HoPrWJW3pf/HoPrWNf4Tpw3xFyiiiuM9Ao3f8ArfwqCp7v/W/hUFeNW/iM64fCgooorIsKKKKACiiigAooooAKKKKACiiigAooooAKKKKACiiigAooooAKKKKACiiigAooooAKKKKAL1n/AKn8anqCz/1P41PXs0f4aOOfxMKKKK1JCiiigAooooAKKKKACiiigAooooAKKKKACiiigAooooAKKKKACiiigAooooAKxNV/4/D/ALorbrE1X/j8P+6K2o/Ec+J+Ap0UUV2HnBRRRQAUUUUAFFFFABRRRQAUUUUAFFFFABRRRQAUUUUAFFFFABRRRQAUUUUAFFFFABRRRQAVt6X/AMeg+tYlbel/8eg+tY1/hOnDfEXKKKK4z0Cjd/638Kgqe7/1v4VBXjVv4jOuHwoKKKKyLCiiigAooooAKKKKACiiigAooooAKKKKACiiigAooooAKKKKACiiigAooooAKKKKACiiigC9Z/6n8anqCz/1P41PXs0f4aOOfxMKKKK1JCiiigAooooAKKKKACiiigAooooAKKKKACiiigAooooAKKKKACiiigAooooAKxNV/wCPw/7orbrE1X/j8P8AuitqPxHPifgKdFFFdh5wUUUUAFFFFABRRRQAUUUUAFFFFABRRRQAUUUUAFFFFABRRRQAUUUUAFFFFABRRRQAUUUUAFbel/8AHoPrWJW3pf8Ax6D61jX+E6cN8RcooorjPQKN3/rfwqCp7v8A1v4VBXjVv4jOuHwoKKKKyLCiiigAooooAKKKKACiiigAooooAKKKKACiiigAooooAKKKKACiiigAooooAKKKKACiiigC9Z/6n8anqCz/ANT+NT17NH+Gjjn8TCiiitSQooooAKKKKACiiigAooooAKKKKACiiigAooooAKKKKACiiigAooooAKKKKACsTVf+Pw/7orbrE1X/AI/D/uitqPxHPifgKdFFFdh5wUUUUAFFFFABRRRQAUUUUAFFFFABRRRQAUUUUAFFFFABRRRQAUUUUAFFFFABRRRQAUUUUAFbel/8eg+tYlbel/8AHoPrWNf4Tpw3xFyiiiuM9Ao3f+t/CoKnu/8AW/hUFeNW/iM64fCgooorIsKKKKACiiigAooooAKKKKACiiigAooooAKKKKACiiigAooooAKKKKACiiigAooooAKKKKAL1n/qfxqeoLP/AFP41PXs0f4aOOfxMKKKK1JCiiigAooooAKKKKACiiigAooooAKKKKACiiigAooooAKKKKACiiigAooooAKxNV/4/D/uitusTVf+Pw/7oraj8Rz4n4CnRRRXYecFFFFABRRRQAUUUUAFFFFABRRRQAUUUUAFFFFABRRRQAUUUUAFFFFABRRRQAUUUUAFFFFABW3pf/HoPrWJW3pf/HoPrWNf4Tpw3xFyiiiuM9Ao3f8ArfwqCp7v/W/hUFeNW/iM64fCgooorIsKKKKACiiigAooooAKKKKACiiigAooooAKKKKACiiigAooooAKKKKACiiigAooooAKKKKAL1n/AKn8anqCz/1P41PXs0f4aOOfxMKKKK1JCiiigAooooAKKKKACiiigAooooAKKKKACiiigAooooAKKKKACiiigAooooAKxNV/4/D/ALorbrE1X/j8P+6K2o/Ec+J+Ap0UUV2HnBRRRQAUUUUAFFFFABRRRQAUUUUAFFFFABRRRQAUUUUAFFFFABRRRQAUUUUAFFFFABRRRQAVt6X/AMeg+tYlbel/8eg+tY1/hOnDfEXKKKK4z0Cjd/638Kgqe7/1v4VBXjVv4jOuHwoKKKKyLCiiigAooooAKKKKACiiigAooooAKKKKACiiigAooooAKKKKACiiigAooooAKKKKACiiigC9Z/6n8anqCz/1P41PXs0f4aOOfxMKKKK1JCiiigAooooAKKKKACiiigAooooAKKKKACiiigAooooAKKKKACiiigAooooAKxNV/wCPw/7orbrE1X/j8P8AuitqPxHPifgKdFFFdh5wUUUUAFFFFABRRRQAUUUUAFFFFABRRRQAUUUUAFFFFABRRRQAUUUUAFFFFABRRRQAUUUUAFbel/8AHoPrWJW3pf8Ax6D61jX+E6cN8RcooorjPQKN3/rfwqCp7v8A1v4VBXjVv4jOuHwoKKKKyLCiiigAooooAKKKKACiiigAooooAKKKKACiiigAooooAKKKKACiiigAooooAKKKKACiiigC9Z/6n8anqCz/ANT+NT17NH+Gjjn8TCiiitSQooooAKKKKACiiigAooooAKKKKACiiigAooooAKKKKACiiigAooooAKKKKACsTVf+Pw/7orbrE1X/AI/D/uitqPxHPifgKdFFFdh5wUUUUAFFFFABRRRQAUUUUAFFFFABRRRQAUUUUAFFFFABRRRQAUUUUAFFFFABRRRQAUUUUAFbel/8eg+tYlbel/8AHoPrWNf4Tpw3xFyiiiuM9Ao3f+t/CoKnu/8AW/hUFeNW/iM64fCgooorIsKKKKACiiigAooooAKKKKACiiigAooooAKKKKACiiigAooooAKKKKACiiigAooooAKKKKAL1n/qfxqeoLP/AFP41PXs0f4aOOfxMKKKK1JCiiigAooooAKKKKACiiigAooooAKKKKACiiigAooooAKKKKACiiigAooooAKxNV/4/D/uitusTVf+Pw/7oraj8Rz4n4CnRRRXYecFFFFABRRRQAUUUUAFFFFABRRRQAUUUUAFFFFABRRRQAUUUUAFFFFABRRRQAUUUUAFFFFABW3pf/HoPrWJW3pf/HoPrWNf4Tpw3xFyiiiuM9Ao3f8ArfwqCp7v/W/hUFeNW/iM64fCgooorIsKKKKACiiigAooooAKKKKACiiigAooooAKKKKACiiigAooooAKKKKACiiigAooooAKKKKAL1n/AKn8anqCz/1P41PXs0f4aOOfxMKKKK1JCiiigAooooAKKKKACiiigAooooAKKKKACiiigAooooAKKKKACiiigAooooAKxNV/4/D/ALorbrE1X/j8P+6K2o/Ec+J+Ap0UUV2HnBRRRQAUUUUAFFFFABRRRQAUUUUAFFFFABRRRQAUUUUAFFFFABRRRQAUUUUAFFFFABRRRQAVt6X/AMeg+tYlbel/8eg+tY1/hOnDfEXKKKK4z0Cjd/638Kgqe7/1v4VBXjVv4jOuHwoKKKKyLCiiigAooooAKKKKACiiigAooooAKKKKACiiigAooooAKKKKACiiigAooooAKKKKACiiigC9Z/6n8anqCz/1P41PXs0f4aOOfxMKKKK1JCiiigAooooAKKKKACiiigAooooAKKKKACiiigAooooAKKKKACiiigAooooAKxNV/wCPw/7orbrE1X/j8P8AuitqPxHPifgKdFFFdh5wUUUUAFFFFABRRRQAUUUUAFFFFABRRRQAUUUUAFFFFABRRRQAUUUUAFFFFABRRRQAUUUUAFbel/8AHoPrWJW3pf8Ax6D61jX+E6cN8RcooorjPQKN3/rfwqCp7v8A1v4VBXjVv4jOuHwoKKKKyLCiiigAooooAKKKKACiiigAooooAKKKKACiiigAooooAKKKKACiiigAooooAKKKKACiiigC9Z/6n8anqCz/ANT+NT17NH+Gjjn8TCiiitSQooooAKKKKACiiigAooooAKKKKACiiigAooooAKKKKACiiigAooooAKKKKACq09jDPJvfdnGODVmimm1sJxUtGUv7Lt/9r86P7Lt/9r86u0VXPLuR7KHYpf2Xb/7X50f2Xb/7X51doo55dw9lDsUv7Lt/9r86P7Lt/wDa/OrtFHPLuHsodil/Zdv/ALX50f2Xb/7X51doo55dw9lDsUv7Lt/9r86P7Lt/9r86u0Uc8u4eyh2KX9l2/wDtfnR/Zdv/ALX51doo55dw9lDsUv7Lt/8Aa/Oj+y7f/a/OrtFHPLuHsodil/Zdv/tfnR/Zdv8A7X51doo55dw9lDsUv7Lt/wDa/Oj+y7f/AGvzq7RRzy7h7KHYpf2Xb/7X50f2Xb/7X51doo55dw9lDsUv7Lt/9r86P7Lt/wDa/OrtFHPLuHsodil/Zdv/ALX50f2Xb/7X51doo55dw9lDsUv7Lt/9r86P7Lt/9r86u0Uc8u4eyh2KX9l2/wDtfnR/Zdv/ALX51doo55dw9lDsUv7Lt/8Aa/OrMEKQJsTOPepKKTk3uxqEY6pBRRRUlkUkCSHLZzTfskfv+dT0Vm6UG7tFczRB9kj9/wA6Pskfv+dT0UvY0+wc8u5B9kj9/wA6Pskfv+dT0Uexp9g55dyD7JH7/nR9kj9/zqeij2NPsHPLuQfZI/f86Pskfv8AnU9FHsafYOeXcg+yR+/50fZI/f8AOp6KPY0+wc8u5B9kj9/zo+yR+/51PRR7Gn2Dnl3IPskfv+dH2SP3/Op6KPY0+wc8u5B9kj9/zo+yR+/51PRR7Gn2Dnl3IPskfv8AnR9kj9/zqeij2NPsHPLuQfZI/f8AOj7JH7/nU9FHsafYOeXcg+yR+/50fZI/f86noo9jT7Bzy7kH2SP3/Oj7JH7/AJ1PRR7Gn2Dnl3IPskfv+dH2SP3/ADqeij2NPsHPLuQfZI/f86Pskfv+dT0Uexp9g55dxkcYjXavSn0UVokkrIkKKKKYBRRRQAUUUUAFFFFABRRRQAUUUUAFFFFABRRRQAUUUUAFFFFABRRRQAUUUUAFFFFABRRRQAUUUUAFFFFABRRRQAUUUUAFFFFABRRRQAUUUUAFFFFABRRRQAUUUUAFFFFABRRRQAUUUUAFFFFABRRRQAUUUUAFFFFABRRRQAUUUUAFFFFABRRRQAUUUUAFFFFABRRRQAUUUUAFFFFABRRRQAUUUUAFFFFABRRRQAUUUUAFFFFABRRRQAUUUUAFFFFABRRRQAUUUUAFFFFABRRRQAUUUUAFFFFABRRRQAUUUUAFFFFABRRRQAUUUUAFFFFABRRRQAUUUUAFFFFABRRRQAUUUUAFFFFABRRRQAUUUUAFFFFABRRRQAUUUUAFFFFABRRRQAUUUUAFFFFABRRRQAUUUUAFFFFABRRRQAUUUUAFFFFABRRRQAUUUUAFFFFABRRRQAUUUUAFFFFABRRRQAUUUUAFFFFABRRRQAUUUUAFFFFABRRRQAUUUUAFFFFABRRRQAUUUUAFFFFABRRRQAUUUUAFFFFABRRRQAUUUUAFFFFABRRRQAUUUUAFFFFABRRRQAUUUUAFFFFABRRRQAUUUUAFFFFABRRRQAUUUUAFFFFABRRRQAUUUUAFFFFABRRRQAUUUUAFFFFABRRRQAUUUUAFFFFABRRRQAUUUUAFFFFABRRRQAUUUUAFFFFABRRRQAUUUUAFFFFABRRRQAUUUUAFFFFABRRRQAUUUUAFFFFABRRRQAUUUUAFFFFABRRRQAUUUUAFFFFABRRRQAUUUUAFFFFABRRRQAUUUUAFFFFABRRRQAUUUUAFFFFABRRRQAUUUUAFFFFABRRRQAUUUUAFFFFABRRRQAUUUUAFFFFABRRRQAUUUUAFFFFABRRRQAUUUUAFFFFABRRRQAUUUUAFFFFABRRRQAUUUUAFFFFABRRRQAUUUUAFFFFABRRRQAUUUUAFFFFABRRRQAUUUUAFFFFABRRRQAUUUUAFFFFABRRRQAUUUUAFFFFABRRRQAUUUUAFFFFABRRRQAUUUUAFFFFABRRRQAUUUUAFFFFABRRRQAUUUUAFFFFABRRRQAUUUUAFFFFABRRRQAUUUUAFFFFABRRRQAUUUUAFFFFABRRRQAUUUUAFFFFABRRRQAUUUUAFFFFABRRRQAUUUUAFFFFABRRRQAUUUUAFFFFABRRRQAUUUUAFFFFABRRRQAUUUUAFFFFABRRRQAUUUUAFFFFABRRRQAUUUUAFFFFABRRRQAUUUUAFFFFABRRRQAUUUUAFFFFABRRRQAUUUUAFFFFABRRRQAUUUUAFFFFABRRRQAUUUUAFFFFABRRRQAUUUUAFFFFABRRRQAUUUUAFFFFABRRRQAUUUUAFFFFABRRRQAUUUUAFFFFABRRRQAUUUUAFFFFABRRRQAUUUUAFFFFABRRRQAUUUUAFFFFABRRRQAUUUUAf/9k=;imageBackground=none;" vertex="1" parent="1">
          <mxGeometry x="360" y="260" width="30" height="30" as="geometry" />
        </mxCell>
        <mxCell id="qGWCjoWgSx9h2fH8xWv7-43" value="SICEI" style="shape=cylinder3;whiteSpace=wrap;html=1;boundedLbl=1;backgroundOutline=1;size=15;labelPosition=center;verticalLabelPosition=middle;align=center;verticalAlign=top;" vertex="1" parent="1">
          <mxGeometry x="450" y="425" width="460" height="385" as="geometry" />
        </mxCell>
        <mxCell id="qGWCjoWgSx9h2fH8xWv7-61" value="" style="edgeStyle=orthogonalEdgeStyle;rounded=0;orthogonalLoop=1;jettySize=auto;html=1;exitX=1.006;exitY=0.704;exitDx=0;exitDy=0;exitPerimeter=0;startArrow=classic;startFill=1;" edge="1" parent="1" source="qGWCjoWgSx9h2fH8xWv7-46" target="qGWCjoWgSx9h2fH8xWv7-50">
          <mxGeometry relative="1" as="geometry" />
        </mxCell>
        <mxCell id="qGWCjoWgSx9h2fH8xWv7-46" value="&lt;p style=&quot;margin:0px;margin-top:4px;text-align:center;&quot;&gt;&lt;b&gt;Alumno&lt;/b&gt;&lt;/p&gt;&lt;hr size=&quot;1&quot; style=&quot;border-style:solid;&quot;&gt;&lt;p style=&quot;margin:0px;margin-left:4px;&quot;&gt;+ Nombre: String&lt;/p&gt;&lt;p style=&quot;margin:0px;margin-left:4px;&quot;&gt;+ Semestre: Int&lt;/p&gt;&lt;p style=&quot;margin:0px;margin-left:4px;&quot;&gt;+ Matricula: String&lt;/p&gt;&lt;p style=&quot;margin:0px;margin-left:4px;&quot;&gt;+ AsignaturasCursadas: Int[]&lt;/p&gt;&lt;p style=&quot;margin:0px;margin-left:4px;&quot;&gt;+ AsignaturasCursando: Int[]&lt;br&gt;&lt;/p&gt;&lt;hr size=&quot;1&quot; style=&quot;border-style:solid;&quot;&gt;" style="verticalAlign=top;align=left;overflow=fill;html=1;whiteSpace=wrap;" vertex="1" parent="1">
          <mxGeometry x="482" y="510" width="160" height="110" as="geometry" />
        </mxCell>
        <mxCell id="qGWCjoWgSx9h2fH8xWv7-49" value="Asignaturas" style="swimlane;fontStyle=1;align=center;verticalAlign=top;childLayout=stackLayout;horizontal=1;startSize=26;horizontalStack=0;resizeParent=1;resizeParentMax=0;resizeLast=0;collapsible=1;marginBottom=0;whiteSpace=wrap;html=1;" vertex="1" parent="1">
          <mxGeometry x="700" y="490" width="168" height="178" as="geometry" />
        </mxCell>
        <mxCell id="qGWCjoWgSx9h2fH8xWv7-50" value="&lt;div&gt;+ ID: Int&lt;br&gt;&lt;/div&gt;&lt;div&gt;+ Nombre: String&lt;/div&gt;&lt;div&gt;+ Creditos: Int&lt;br&gt;&lt;/div&gt;&lt;div&gt;+ Semestre: Int&lt;/div&gt;&lt;div&gt;+ TipoFormaciÃ³n: String&lt;/div&gt;&lt;div&gt;+ Secuencial: Bool&lt;/div&gt;&lt;div&gt;+ AsignaturaPrevia: Int&lt;/div&gt;&lt;div&gt;+ AsignaturaPosterior: Int&lt;br&gt;&lt;/div&gt;" style="text;strokeColor=none;fillColor=none;align=left;verticalAlign=top;spacingLeft=4;spacingRight=4;overflow=hidden;rotatable=0;points=[[0,0.5],[1,0.5]];portConstraint=eastwest;whiteSpace=wrap;html=1;" vertex="1" parent="qGWCjoWgSx9h2fH8xWv7-49">
          <mxGeometry y="26" width="168" height="144" as="geometry" />
        </mxCell>
        <mxCell id="qGWCjoWgSx9h2fH8xWv7-51" value="" style="line;strokeWidth=1;fillColor=none;align=left;verticalAlign=middle;spacingTop=-1;spacingLeft=3;spacingRight=3;rotatable=0;labelPosition=right;points=[];portConstraint=eastwest;strokeColor=inherit;" vertex="1" parent="qGWCjoWgSx9h2fH8xWv7-49">
          <mxGeometry y="170" width="168" height="8" as="geometry" />
        </mxCell>
        <mxCell id="qGWCjoWgSx9h2fH8xWv7-55" value="chatBot Database" style="shape=cylinder3;whiteSpace=wrap;html=1;boundedLbl=1;backgroundOutline=1;size=15;verticalAlign=top;" vertex="1" parent="1">
          <mxGeometry x="690" y="40" width="390" height="350" as="geometry" />
        </mxCell>
        <mxCell id="qGWCjoWgSx9h2fH8xWv7-56" style="edgeStyle=orthogonalEdgeStyle;rounded=0;orthogonalLoop=1;jettySize=auto;html=1;entryX=0;entryY=0.5;entryDx=0;entryDy=0;entryPerimeter=0;" edge="1" parent="1" source="RIgYpcFcjzrUZQ1iKc-5-24" target="qGWCjoWgSx9h2fH8xWv7-55">
          <mxGeometry relative="1" as="geometry" />
        </mxCell>
        <mxCell id="qGWCjoWgSx9h2fH8xWv7-57" value="&lt;p style=&quot;margin:0px;margin-top:4px;text-align:center;&quot;&gt;&lt;b&gt;Conversacion&lt;/b&gt;&lt;br&gt;&lt;/p&gt;&lt;hr size=&quot;1&quot; style=&quot;border-style:solid;&quot;&gt;&lt;div&gt;- ID: Int&lt;br&gt;&lt;/div&gt;&lt;div&gt;- Prompts: Int[]&lt;br&gt;&lt;/div&gt;&lt;div&gt;- Historial: Int[]&lt;/div&gt;&lt;div&gt;- UltimaInteraccion: Int&lt;br&gt;&lt;/div&gt;&lt;hr size=&quot;1&quot; style=&quot;border-style:solid;&quot;&gt;&lt;p style=&quot;margin:0px;margin-left:4px;&quot;&gt;&lt;br&gt;&lt;/p&gt;" style="verticalAlign=top;align=left;overflow=fill;html=1;whiteSpace=wrap;" vertex="1" parent="1">
          <mxGeometry x="704" y="110" width="160" height="90" as="geometry" />
        </mxCell>
        <mxCell id="qGWCjoWgSx9h2fH8xWv7-58" value="&lt;p style=&quot;margin:0px;margin-top:4px;text-align:center;&quot;&gt;&lt;b&gt;Respuestas&lt;/b&gt;&lt;br&gt;&lt;/p&gt;&lt;hr size=&quot;1&quot; style=&quot;border-style:solid;&quot;&gt;&lt;p style=&quot;margin:0px;margin-left:4px;&quot;&gt;- Content: String&lt;/p&gt;&lt;p style=&quot;margin:0px;margin-left:4px;&quot;&gt;- Rating: Int&lt;br&gt;&lt;/p&gt;&lt;p style=&quot;margin:0px;margin-left:4px;&quot;&gt;- Lenguaje: String&lt;/p&gt;&lt;hr size=&quot;1&quot; style=&quot;border-style:solid;&quot;&gt;&lt;p style=&quot;margin:0px;margin-left:4px;&quot;&gt;&lt;br&gt;&lt;/p&gt;" style="verticalAlign=top;align=left;overflow=fill;html=1;whiteSpace=wrap;" vertex="1" parent="1">
          <mxGeometry x="704" y="220" width="160" height="90" as="geometry" />
        </mxCell>
        <mxCell id="qGWCjoWgSx9h2fH8xWv7-60" value="&lt;p style=&quot;margin:0px;margin-top:4px;text-align:center;&quot;&gt;&lt;b&gt;Prompt&lt;/b&gt;&lt;br&gt;&lt;/p&gt;&lt;hr size=&quot;1&quot; style=&quot;border-style:solid;&quot;&gt;&lt;p style=&quot;margin:0px;margin-left:4px;&quot;&gt;- ID: Int&lt;/p&gt;&lt;p style=&quot;margin:0px;margin-left:4px;&quot;&gt;- Content: String&lt;/p&gt;&lt;p style=&quot;margin:0px;margin-left:4px;&quot;&gt;- Lenguaje: String&lt;/p&gt;&lt;p style=&quot;margin:0px;margin-left:4px;&quot;&gt;- Invalid: Bool&lt;br&gt;&lt;/p&gt;&lt;hr size=&quot;1&quot; style=&quot;border-style:solid;&quot;&gt;&lt;p style=&quot;margin:0px;margin-left:4px;&quot;&gt;+ method(): Type&lt;/p&gt;" style="verticalAlign=top;align=left;overflow=fill;html=1;whiteSpace=wrap;" vertex="1" parent="1">
          <mxGeometry x="900" y="110" width="160" height="100" as="geometry" />
        </mxCell>
        <mxCell id="qGWCjoWgSx9h2fH8xWv7-62" value="Usuarios" style="swimlane;fontStyle=1;align=center;verticalAlign=top;childLayout=stackLayout;horizontal=1;startSize=26;horizontalStack=0;resizeParent=1;resizeParentMax=0;resizeLast=0;collapsible=1;marginBottom=0;whiteSpace=wrap;html=1;" vertex="1" parent="1">
          <mxGeometry x="900" y="220" width="160" height="98" as="geometry">
            <mxRectangle x="900" y="220" width="80" height="30" as="alternateBounds" />
          </mxGeometry>
        </mxCell>
        <mxCell id="qGWCjoWgSx9h2fH8xWv7-63" value="&lt;div&gt;- Nombre: String&lt;/div&gt;&lt;div&gt;- TokensActivos: String[]&lt;br&gt;&lt;/div&gt;&lt;div&gt;- Conversaciones: Int[]&lt;/div&gt;&lt;div&gt;&lt;br&gt;&lt;/div&gt;" style="text;strokeColor=none;fillColor=none;align=left;verticalAlign=top;spacingLeft=4;spacingRight=4;overflow=hidden;rotatable=0;points=[[0,0.5],[1,0.5]];portConstraint=eastwest;whiteSpace=wrap;html=1;" vertex="1" parent="qGWCjoWgSx9h2fH8xWv7-62">
          <mxGeometry y="26" width="160" height="64" as="geometry" />
        </mxCell>
        <mxCell id="qGWCjoWgSx9h2fH8xWv7-64" value="" style="line;strokeWidth=1;fillColor=none;align=left;verticalAlign=middle;spacingTop=-1;spacingLeft=3;spacingRight=3;rotatable=0;labelPosition=right;points=[];portConstraint=eastwest;strokeColor=inherit;" vertex="1" parent="qGWCjoWgSx9h2fH8xWv7-62">
          <mxGeometry y="90" width="160" height="8" as="geometry" />
        </mxCell>
      </root>
    </mxGraphModel>
  </diagram>
</mxfile>
